<svg xmlns="http://www.w3.org/2000/svg" width="1024" height="1024" xmlns:v="https://vecta.io/nano"><path d="M0 0h1024v1024H0V0z" fill="#60ba6c"/><path d="M0 0h1024v1024H0V0zm490 61c-2.023 2.88-3.588 5.781-5 9l-1.312 2.813C481.762 81.74 482.44 90.023 487 98c6.175 8.895 14.41 13.946 25 16 6.366.617 11.896-.191 18-2 16.828 17.18 30.357 38.81 34 63l-3.246-.129c-31.262.048-66.751 14.645-92.754 31.129l-1.8 1.135c-14.153 8.985-27.122 19.25-39.2 30.865l-1.638 1.571C418.031 246.648 411.226 253.913 405 262l-1.37 1.76C388.772 282.904 376.735 303.303 366 325l.013-1.947.096-20.398.041-7.572c.135-19.993-.53-39.534-4.338-59.208l-.649-3.398c-9.734-49.411-29.526-104.756-72.914-134.685-19.983-13.234-43.379-20.489-67.437-16.136C201.037 86.435 184.719 97.674 174 115c-7.833 13.953-11.742 28.084-11.562 44.125l.008 2.027c.07 11.826 1.763 22.656 5.555 33.848l1.164 3.527L170 201l-2.684-1.172C146.511 190.972 123.767 186.494 102 195c-16.91 7.413-29.907 18.387-38.375 35l-.975 1.902c-4.502 9.313-6.195 18.487-6.087 28.785l.027 3.176c.6 27.155 15.035 47.949 33.809 66.508 40.779 38.002 101.87 60.622 156.852 63.754l4.316.262L262 395l-2.789 2.535c-14.013 12.839-26.433 26.259-37.757 41.528-2.034 2.71-4.157 5.348-6.266 8-51.725 67.486-77.15 151.796-67.005 236.65.78 5.464 1.731 10.876 2.817 16.287l.567 2.942c4.938 25.134 13.082 49.468 24.433 72.433l.941 1.949c1.702 3.409 3.541 6.383 5.911 9.371 3.375 4.45 6.568 8.837 5.864 14.655-1.767 6.193-4.812 11.856-7.716 17.577-3.809 7.624-7.083 15.51-10.49 23.32l-4.937 11.162-3.458 7.818-4.027 8.943-1.666 3.696-1.435 3.121c-1.153 3.519-1.273 6.33-.987 10.012 1.998 2.92 3.325 3.81 6.724 4.765 4.101.294 6.334-.689 10.069-2.386l1.975-.882 6.419-2.934 4.493-2.028 11.869-5.412 9.88-4.499 20.719-9.456 1.93-.885c2.428-1.117 4.838-2.239 7.203-3.486 2.632-1.221 3.998-.741 6.718.203 2.257 1.524 4.365 3.072 6.5 4.75 23.074 17.42 49.304 31.483 76.5 41.25l2.257.826c16.045 5.821 32.494 9.576 49.306 12.424l2.917.495C428.092 927.6 484.011 919.756 527 895l.044 1.741.268 7.884.068 2.738c.259 6.452 1.28 10.932 5.619 15.949 3.125 2.637 5.773 2.813 9.708 2.816l2.951.01 3.25-.005 3.447.007 11.496.005 8.219.01 20.05.012 16.307.006 46.248.013h2.52 2.523l40.423.023 41.522.02 23.304.013 19.856.004 10.121.005 11.002-.005 3.189.016c22.6-.104 41.046-8.514 56.863-24.263l2.031-1.926c3.948-4.047 6.571-8.656 9.156-13.637l.974-1.837c7.053-14.32 7.405-28.432 7.293-44.05l.002-6.686-.05-18.022-.032-18.882-.072-31.65-.082-32.577-.003-2.034-.015-10.102L885 637l2.503.016 3.28.012 3.253.016c10.067-.148 18.608-3.825 25.781-10.813 5.287-5.847 6.513-10.745 6.387-18.559-.238-3.13-.958-5.792-2.203-8.672l1.496-1.207 1.941-1.605 1.934-1.582c2.638-2.6 2.825-5.377 2.941-8.918-.06-4.618-1.208-7.164-4.312-10.687-3.436-2.577-4.601-3-9-3l1-2.5c1.641-5.744 1.852-10.238-.687-15.625-4.721-8.389-9.859-11.777-18.562-15.125-3.493-.699-6.439-.826-9.984-.797l-3.272.021L885 538l.027-2.541.18-23.746.095-12.207.078-11.788.043-4.49.031-6.304.027-3.62c-.586-4.026-1.935-6.162-4.481-9.303-7.404-4.206-15.808-3.478-24.094-3.512l-4.674-.054-12.231-.103-12.509-.121L803 460l1.172-3.531c6.572-20.414 9.527-40.462 9.35-61.896l.025-9.217C813.624 331.398 791.04 280.641 754 242l-1.523-1.605C744.563 232.089 736.201 224.84 727 218l-1.69-1.284c-9.566-7.263-19.703-13.109-30.31-18.716l-2.007-1.086C677.3 188.434 655.233 177.185 637 178c6.387-23.468 13.982-43.979 28-64l3.375.5c10.39 1.244 20.005 1.001 28.875-5.187 6.291-5.135 11.754-12.178 13.084-20.368.921-11.599-.515-20.846-8.092-30.089-6.713-6.671-15.544-9.014-24.805-9.355-10.4.41-17.779 3.784-25.27 10.988-5.8 6.719-8.376 14.138-8.434 22.891.311 3.072 1.26 5.643 2.266 8.559 1.402 5.294 1.402 5.294-.23 8.418-1.382 1.602-2.803 3.171-4.25 4.715C626.592 122.428 615.46 151.482 613 174l-1.702-.494c-2.433-.536-4.574-.62-7.063-.604l-2.695.01-2.789.025-2.836.014L589 173l-.332-1.84c-5.028-26.606-17.121-51.24-35.66-70.976L551 98l-2.336-2.48C547 93 547 93 547.266 90.641l.984-2.391c2.583-7.326 2.591-13.676-.152-20.988-4.219-8.694-10.995-14.805-19.922-18.398C512.843 44.695 500.299 49.585 490 61z" fill="#fefefd"/><path d="M601.051 460.739l3.526-.012 9.593-.004 10.382-.014 20.299-.012 16.501-.004 2.377-.002 4.781-.004 44.767-.003 40.934-.025 42.078-.024 23.605-.015 20.084-.001 10.241-.005 11.11.01 3.255-.022c6.171.045 10.825.706 16.415 3.397 3.781 4.214 4.496 7.345 4.454 12.923l.002 2.012-.065 6.525-.017 4.548-.099 11.925-.079 12.187L885 538l2.499-.025 3.277-.019 3.249-.025c6.483.149 13.203 2.387 18.413 6.318 5.489 5.89 8.806 11.466 8.73 19.676-.234 2.886-1.098 5.399-2.168 8.074l2.688.25c3.804.861 5.535 2.05 8.313 4.75 2.557 4.24 2.554 8.171 2 13-1.762 4.173-4.375 6.354-8 9l1 2.313c1.692 6.241 2.18 12.816-.437 18.875-4.852 8.291-12.547 13.119-21.562 15.813-4.096 1.068-7.985 1.027-12.195 1.016l-3.29-.007L885 637l.011 3.488.193 82.12.015 10.126.003 2.036.086 32.561.068 33.456.047 18.773.03 17.697.024 6.468c.103 15.102-.96 28.784-8.039 42.462l-1.016 1.994C872.679 895.147 867.66 900.549 862 906l-1.953 2.012c-14.383 13.914-34.311 18.144-53.605 18.129l-3.475.009-11.499.012-8.255.015-22.4.024-13.989.012-38.745.026h-2.501l-2.507.001-5.029.001-2.52.001-40.475.045-41.573.037-23.335.025-19.855.012c-3.377-.004-6.753-.001-10.13.011-3.659.013-7.317.007-10.976-.004l-3.241.024c-8.975-.06-8.975-.06-12.937-3.392-4.096-4.551-5.128-7.639-5.105-13.683l.006-3.701.023-4.164.013-4.496.038-10.214.068-18.512.151-39.329.084-20.741.15-36.963.146-35.825.009-2.245.045-11.153L529 630l2.212.519 10.1 2.356 3.479.816c15.075 3.51 15.075 3.51 30.459 4.621l2.273.049c5.215.005 8.871-.866 13.477-3.361 2.429-3.644 2.162-5.712 2-10l3.563.25c4.634-.025 7.964-1.134 11.438-4.25 2.298-3.806 3.031-6.119 2.875-10.562-.886-3.48-2.122-6.313-3.875-9.437l1.793-.078c5.257-.377 8.385-.98 12.207-4.922 1.73-3.46 1.342-7.21 1-11-1.369-3.851-3.185-5.288-6.687-7.125-4.027-1.838-8.146-3.387-12.312-4.875 1.375-1.5 1.375-1.5 3-3h2c1.023-5.127 1.685-8.701-.812-13.437-7.253-7.016-19.066-6.033-28.383-6.074l-4.329-.054-11.294-.103-11.565-.121L529 550l-.165-11.621-.099-5.84c-.16-20.959 6.156-37.909 20.451-53.227 14.499-13.925 32.298-18.642 51.863-18.573z" fill="#fee62c"/><path d="M206 460h1l.156 1.703C211.582 494.495 235.465 528.424 255 554l1.468 1.939c5.38 7.086 10.977 13.856 17.047 20.365 1.979 2.147 3.909 4.317 5.824 6.52 8.272 9.486 16.781 18.867 26.297 27.121 2.538 2.206 4.974 4.504 7.426 6.805 6.63 6.039 13.77 11.382 20.944 16.753l5.224 3.974c53.464 40.838 119.549 68.072 185.875 78.154C527 716 527 716 529 717l.052 63.475.024 29.476.019 25.705.012 13.598.007 12.826.006 4.681c.017 7.198-.039 14.391-.405 21.581l-.154 3.096c-.672 3.069-1.528 3.91-4.104 5.628-1.466.688-2.953 1.333-4.457 1.934l-4.051 2.027c-58.688 26.795-128.508 27.903-188.864 5.911-27.764-10.36-53.546-24.015-77.582-41.344l-1.843-1.328C246 863 246 863 243.402 860.594c-2.308-1.888-2.308-1.888-5.164-1.367-3.444.823-6.269 2.009-9.453 3.555l-3.713 1.779-1.975.957-10.616 5.045-2.279 1.074-25.724 11.708-5.181 2.32-7.304 3.241-2.184.998c-4.35 1.876-7.238 2.467-11.809 1.095-2.375-1.625-2.375-1.625-4-4-.624-6.08 1.002-10.215 3.48-15.598l1.105-2.483 3.602-7.981 2.469-5.528 4.979-11.122 8.925-20.342 2.378-5.48 2.788-6.519a120.7 120.7 0 0 1 2.641-5.707c2.214-4.448 2.214-4.448 2.226-9.257-.952-2.03-2.06-3.771-3.343-5.609l-2.613-4.199-1.354-2.119C163.38 756.347 153.903 721.135 149 688l-.564-3.728c-1.758-12.522-1.791-25.022-1.748-37.647l.006-3.35c.069-24.741 2.239-48.234 8.307-72.275l.75-3.005C165.344 530.142 181.669 490.912 206 460z" fill="#60bb6c"/><path d="M291 100c45.828 35.157 65.485 95.043 73.25 150.25 1.507 11.878 1.893 23.717 1.848 35.676l-.004 4.451-.025 11.575-.02 11.867L366 337l-3-6c-32.622 15.842-63.676 34.021-91.687 57.188l-1.658 1.35c-1.646 1.359-1.646 1.359-3.655 3.462 0 27.431 25.701 64.148 41 86l1.135 1.633c8.724 12.533 17.923 24.537 28.369 35.687 2.115 2.271 4.163 4.575 6.184 6.93 5.234 6.019 10.907 11.545 16.961 16.734l5.266 4.594C379.901 557.765 395.969 569.592 413 580l2.605 1.604C451.175 603.352 489.179 618.054 529 630v87c-63.882-10.647-124.6-32.818-178-70l-1.868-1.283c-9.144-6.287-17.757-13.145-26.306-20.215l-4.967-4.013c-5.15-4.121-9.937-8.383-14.496-13.152-1.999-1.976-4.036-3.794-6.168-5.621-4.155-3.605-7.908-7.485-11.633-11.527l-1.975-2.128L278 583l-2.652-2.875c-27.257-29.892-64.258-76.056-69.285-117.187.379-6.619 5.404-11.447 9.522-16.255 2.264-2.69 4.359-5.503 6.478-8.307C234.17 422.627 247.145 408.189 262 395l-2.433-.104c-63.886-2.929-132.269-25.546-177.61-72.7-18.211-20.429-26.186-42.823-25.184-70.211 1.259-16.583 10.75-31.867 22.5-43.172 16.231-13.804 35.087-19.271 56.168-18.04 12.187 1.084 23.431 5.368 34.559 10.228l-.535-1.848-2.403-8.339-.842-2.908-.811-2.822-.746-2.587c-5.741-21.565-2.502-45.99 8.19-65.316 10.156-17.43 25.022-28.605 44.208-34.616C243.173 76.299 269.893 84.207 291 100z" fill="#60ba6c"/><path d="M206 460h1l.156 1.703C211.582 494.495 235.465 528.424 255 554l1.468 1.939c5.38 7.086 10.977 13.856 17.047 20.365a299.61 299.61 0 0 1 5.824 6.52c8.272 9.486 16.781 18.867 26.297 27.121 2.538 2.206 4.974 4.504 7.426 6.805 6.63 6.039 13.77 11.382 20.944 16.753l5.224 3.974c53.464 40.838 119.549 68.072 185.875 78.154C527 716 527 716 529 717v107c-25.616-2.329-25.616-2.329-36.187-4.25l-3.695-.662L478 817l-3.347-.64c-79.597-15.574-159.432-53.037-219.247-108.165l-3.988-3.536c-6.381-5.434-12.261-11.351-18.173-17.283l-5.423-5.417c-5.821-5.818-11.51-11.666-16.822-17.959l-2.781-3.141C199.563 651.006 191.757 640.567 184 630l-2.789-3.758c-6.148-8.363-11.552-17.12-16.866-26.03-1.309-2.152-2.664-4.266-4.04-6.376l-1.275-1.996-2.389-3.63c-3.632-5.771-3.37-10.678-2.037-17.131.844-3.366 1.786-6.688 2.771-10.016l1.085-3.71C168.661 523.305 183.865 488.122 206 460zm157-130c1.938 2.908 2.276 3.907 2.75 7.188 8.159 43.24 44.642 85.535 78.25 111.813l3.379 2.789c25.995 21.433 55.83 37.238 87.621 48.21l-.586 1.801-.789 2.512-.773 2.426c-2.557 9.796-3.234 19.347-3.477 29.449l-.117 4.041L529 550l2.4-.02 22.506-.135 11.568-.071 11.185-.058 4.246-.033c18.826-.208 18.826-.208 25.088 4.963 2.72 2.778 3.899 4.666 4.507 8.541-.892 5.02-2.417 6.867-6.5 9.813l2.449.734c12.6 3.952 12.6 3.952 15.641 9.117 1.57 3.706 1.545 7.207.91 11.148-2.158 3.957-3.28 5.457-7.559 6.809-2.479.51-4.927.908-7.441 1.191l.91 1.504c2.022 3.613 3.09 5.907 3.09 10.121-1.507 5.087-3.359 8.281-7.812 11.25-3.582 1.264-6.416 1.351-10.187 1.125l.25 2.688c-.312 4.128-1.268 5.487-4.25 8.313-30.495 12.643-86.976-12.79-115.437-24.402C397.126 580.095 331.356 526.654 290 453l-1.332-2.365C278.59 432.556 270.947 413.471 264 394c28.257-27.637 64.107-46.194 99-64z" fill="#010100"/><path d="M150 693c2.502 1.251 2.755 2.21 4 4.688 16.767 30.985 46.06 62.827 73.602 84.414 2.351 1.861 4.56 3.815 6.773 5.836 5.613 5.029 11.59 9.559 17.625 14.063l2.004 1.505C321.462 853.953 408.282 884.664 492 893l2.081.209c10.95 1.043 21.933.891 32.919.791-20.428 21.807-71.922 27.18-100.362 28.11-64.734 1.053-124.572-18.62-177.135-56.516l-1.843-1.328C246 863 246 863 243.402 860.594c-2.308-1.888-2.308-1.888-5.164-1.367-3.444.823-6.269 2.009-9.453 3.555l-3.713 1.779-1.975.957-10.616 5.045-2.279 1.074-25.724 11.708-5.181 2.32-7.304 3.241-2.184.998c-4.35 1.876-7.238 2.467-11.809 1.095-2.375-1.625-2.375-1.625-4-4-.624-6.08 1.002-10.215 3.48-15.598l1.105-2.483 3.602-7.981 2.469-5.528 4.979-11.122 8.925-20.342 2.378-5.48 2.788-6.519a120.7 120.7 0 0 1 2.641-5.707c2.214-4.448 2.214-4.448 2.226-9.257-.952-2.03-2.06-3.771-3.343-5.609l-2.613-4.199-1.354-2.119C164.274 757.779 154.839 724.485 150 693z" fill="#010101"/><path d="M535 52c7.823 5.459 13.173 12.534 15 22 .756 7.084-.886 13.267-3 20l1.984 1.809c24.99 23.754 42.121 61.243 43.391 95.879-.162 3.861-.645 6.406-3.375 9.313-4.387 2.4-8.006 3.744-13 3-4.214-1.983-5.701-3.325-7.598-7.613-1.515-4.315-2.108-8.553-2.652-13.074-3.879-27.416-16.715-51.483-35.75-71.312l-3.375 1c-10.341 2.504-19.975.931-29.176-4.508C490.59 103.535 484.661 96.472 483 88c-1.028-11.034 1.404-19.56 8.379-28.187C502.48 47.4 520.061 43.052 535 52z" fill="#010201"/><path d="M696 54c7.209 4.649 11.931 10.636 14 19 1.559 10.922.773 20.91-6 30-5.786 6.446-12.234 10.981-21 12-6.121.244-11.937-.188-18-1-13.303 19.707-21.616 40.177-28 63-8.07-.615-16.014-1.692-24-3 3.707-23.654 13.6-53.632 30.414-71.503 1.639-1.68 1.639-1.68 3.586-4.497-.038-2.953-.038-2.953-1.187-5.812C643.179 83.481 643.05 76.346 647 68c5.099-8.436 11.562-14.238 20.98-17.305 9.667-2.226 19.136-1.081 28.02 3.305z" fill="#020202"/><path d="M170 197c2 2 2 2 3 5 2.598 1.509 2.598 1.509 5.875 2.938 30.647 14.586 59.962 38.906 82.035 64.633l4.961 5.672c7.537 8.534 14.581 17.346 21.405 26.458l5.455 7.225C322 347.624 322 347.624 322 353c-2.563 1.879-4.916 3.186-8 4-6.352-2.108-11.822-6.993-16.875-11.25l-4.207-3.488-2.038-1.702-7.443-5.998c-6.487-5.311-12.524-11.098-18.615-16.853l-4.967-4.573c-6.929-6.278-13.609-12.785-20.23-19.387l-2.559-2.545c-4.356-4.367-8.562-8.802-12.582-13.48-1.861-2.163-3.798-4.253-5.734-6.35-5.586-6.201-10.678-12.753-15.75-19.375l-1.498-1.948C176.479 217.437 176.479 217.437 172 204c-3-1.709-3-1.709-6-3 2-1 2-1 4-1v-3z" fill="#389e4e"/><path d="M588.097 763.365l3.108-.024 10.325.012 7.396-.027 18.012-.003 14.639.007 2.105-.002 4.233-.005 39.689.029 34.055-.005 39.547-.022 4.217.005 2.096.002 14.622-.015 19.679.024 7.231-.006 9.853.028 2.905-.034c4.533.067 6.563.198 10.287 2.986 2.496 3.517 2.596 5.457 1.904 9.683-2.219 2.907-3.519 3.84-7 5-1.408.091-2.82.127-4.231.129l-2.628.01-2.889-.005-3.068.007-10.226.005-7.312.01-17.828.012-14.488.006-41.057.013h-2.236-2.239c-11.98 0-23.959.009-35.939.023l-36.884.02c-6.905 0-13.81.002-20.715.013l-19.475.002c-2.387-.001-4.773.001-7.16.007a2056.18 2056.18 0 0 1-9.75-.005l-2.883.016-2.636-.014-2.273.001c-2.449-.293-4.001-.932-6.084-2.25-2.5-3.75-2.536-5.559-2-10 4.196-5.945 8.391-5.713 15.097-5.635z" fill="#010101"/><path d="M588.097 830.365l3.108-.024 10.325.012 7.396-.027 18.012-.003 14.639.007 2.105-.002 4.233-.005 39.689.029 34.055-.005 39.547-.022 4.217.005 2.096.002 14.622-.015 19.679.024 7.231-.006 9.853.028 2.905-.034c4.558.067 6.56.189 10.287 3.021C834 836 834 836 834.562 839c-.686 3.659-1.99 5.352-4.562 8-2.291 1.146-3.571 1.129-6.118 1.137l-2.629.015-2.906.002-3.074.013-10.263.026-7.331.025-22.049.052-6.226.012-38.654.06-8.955.009-2.248.002-36.061.088-37.013.071-20.785.048-19.551.025a969.25 969.25 0 0 0-7.181.026c-3.265.023-6.529.014-9.794-.001l-2.879.042c-4.342-.052-7.374-.249-10.874-2.969C573 843 573 843 572.312 839.5c1.764-8.979 8.036-9.225 15.784-9.135z" fill="#030201"/><path d="M584.21 695.866l2.614-.014 2.873.001 3.051-.011 10.17-.019 7.273-.02 21.856-.039 10.292-.015 34.21-.039 8.877-.006 2.229-.001 35.75-.066 36.701-.054 20.608-.036 19.381-.017 7.118-.02 9.708.003 2.853-.033c5.529.055 8.929.675 13.225 4.521 1.125 3.438 1.125 3.438 1 7-1.766 2.802-3.03 4.515-6 6-1.376.097-2.757.133-4.136.137l-2.642.015-2.92.002-3.088.013-10.311.026-7.366.025-22.151.052-6.255.012-38.825.06-8.995.009-2.258.002-36.228.088-37.179.071-20.881.048-19.637.025c-2.405 0-4.811.008-7.216.026-3.279.023-6.556.014-9.834-.001l-2.899.042c-4.532-.054-6.55-.179-10.274-2.965-2.497-3.518-2.597-5.458-1.905-9.685 3.151-4.129 6.156-5.122 11.21-5.134z" fill="#040401"/><path d="M750.875 352.234c3.764 1.356 5.198 3.347 7.125 6.766 1.046 4.669.725 6.665-1.555 10.863-2.047 3.133-4.203 6.141-6.445 9.137l-1.773 2.453C741.655 390.277 735.035 398.241 724 401c-8.137.982-14.558-2.276-21-7l-2.5-1.812c-3.187-2.789-5.825-5.915-8.5-9.187l-2 2-1.391 1.375a150.25 150.25 0 0 0-3.406 3.563c-6.996 7.388-13.673 11.509-23.891 12.375-8.994-.202-15.536-4.711-21.859-10.746-16.772-17.546-16.772-17.546-17.828-26.879.497-4.891 1.946-6.258 5.375-9.687 3.11-1.555 5.563-1.286 9-1 5.128 2.793 7.814 6.072 10.938 10.813 5.061 8.099 5.061 8.099 12.063 14.188 3.732-.07 5.491-.565 8.344-3.004l2.156-2.559 2.332-2.734a186.13 186.13 0 0 0 5.355-7.016c6.093-8.185 6.093-8.185 11.203-9.129 5.875-.273 8.915.705 13.609 4.441 2.358 2.575 4.495 5.298 6.625 8.063l3.352 4.285 1.471 1.906A25.2 25.2 0 0 0 719 378c5.241-.828 8.028-4.962 11-9l4-6.125c8.122-12.237 8.122-12.237 16.875-10.641z" fill="#010201"/><path d="M885 538c19.154 0 19.154 0 27.438 6.25 5.489 5.89 8.806 11.466 8.73 19.676-.234 2.886-1.098 5.399-2.168 8.074l2.688.25c3.804.861 5.535 2.05 8.313 4.75 2.557 4.24 2.554 8.171 2 13-1.762 4.173-4.375 6.354-8 9l1 2.313c1.692 6.241 2.18 12.816-.437 18.875-4.852 8.291-12.547 13.119-21.562 15.813-6.095 1.59-11.407 1-18 1v-99z" fill="#020201"/><path d="M647.585 627.492l2.326-.019 7.722.009 5.534-.021 15.037.002 15.728-.006 26.418.021 30.548-.007 26.217-.01 15.663-.006 14.727.02 5.407-.005 7.377.023 2.164-.027c3.525.056 5.461.481 8.467 2.383 2.665 2.756 3.081 4.338 3.081 8.152-1.188 2.752-2.16 4.427-4.646 6.124-3.264 1.214-6.39 1.155-9.824 1.136l-2.289.012-7.598.002-5.445.015-14.795.011c-4.115-.001-8.231.004-12.346.009l-29.124.005c-10.019-.006-20.038.006-30.057.028l-25.796.02c-5.137-.002-10.274.001-15.411.015a2731.86 2731.86 0 0 1-14.491-.002 889.27 889.27 0 0 0-5.32.009 759.08 759.08 0 0 1-7.259-.01l-2.129.022c-4.325-.048-7.037-.74-10.469-3.397-2-3-2-3-1.875-6.437 1.761-7.171 5.622-8.156 12.46-8.07z" fill="#020101"/><path d="M649.275 560.866l2.298-.007 7.665-.005 5.479-.01 14.913-.012 12.436-.008 29.333-.01 30.289-.026 25.977-.018 15.527-.013 14.602-.002 5.365-.007 7.313.005 2.154-.016c3.607.025 6.383.143 9.375 2.263 2.342 3.513 2.496 4.865 2 9-1.8 2.7-3.084 4.542-6 6l-7.268.147-2.296.011-7.658.019-5.474.02-14.901.036-9.304.018-29.094.042-33.614.077-25.962.048-15.515.036-14.594.017c-1.786 0-3.572.006-5.359.02-2.438.018-4.874.011-7.312-.003l-2.145.033c-4.759-.062-7.16-1.16-10.504-4.521-1.42-2.841-1.315-4.855-1-8 4.014-4.95 7.222-5.147 13.275-5.134z" fill="#040301"/><path d="M584.688 284.688c12.982 9.356 19.975 23.704 22.938 39.129 1.049 8.907 1.049 8.907-1.375 13.496-3.209 3.833-4.726 4.549-9.687 5-3.819-.335-5.592-.936-8.562-3.312-2.306-3.571-2.673-7.51-3.312-11.625-1.637-9.397-4.218-17.032-11.844-23.219-5.735-3.597-11.237-3.889-17.844-3.156-6.312 1.805-10.322 5.708-14 11l-1.152 1.633c-3.167 5.33-3.838 11.222-4.546 17.289-.547 3.954-1.101 5.82-3.622 9.063-3.481 2.618-5.261 2.689-9.461 2.438-3.493-.664-5.602-2.061-8.219-4.422-4.18-8.36-.803-18.182 1.781-26.645 4.508-12.411 13.65-23.016 25.219-29.355l2.156-1.25c13.259-6.539 29.422-3.431 41.531 3.938z" fill="#010201"/><path d="M527 853c3.173 4.76 2.328 9.842 2.313 15.438l.049 3.471.002 3.338.009 3.052c-.422 3.062-1.328 4.431-3.372 6.701l-.055-13.19-.021-4.49-.022-6.441-.016-3.92C526 854 526 854 527 853z" fill="#6fbb65"/><path d="M564 173c1.55 2.814 2.343 5.194 2.781 8.371l.363 2.49.355 2.576c.984 7.481.984 7.481 3.5 14.563h-2c-3.665-6.693-3.698-13.483-4-21h-2l1-7z" fill="#70d27d"/><path d="M549 475h5c-6.15 7.483-6.15 7.483-10 10l5-10z" fill="#51b272"/><path d="M153 579h1l1 9h-2l-1 2c-.143-7.429-.143-7.429 1-11z" fill="#50a95d"/><path d="M73 216l1 3c-1.812 2.688-1.812 2.688-4 5h-2c1.186-3.375 2.276-5.647 5-8z" fill="#46ad54"/><path d="M810 367h3v7l-3-1v-6z" fill="#69bc73"/></svg>